<?xml version="1.0" standalone="no"?><!DOCTYPE svg PUBLIC "-//W3C//DTD SVG 1.1//EN" "http://www.w3.org/Graphics/SVG/1.1/DTD/svg11.dtd"><svg t="1770860410062" class="icon" viewBox="0 0 1024 1024" version="1.1" xmlns="http://www.w3.org/2000/svg" p-id="35510" xmlns:xlink="http://www.w3.org/1999/xlink" width="128" height="128"><path d="M946.432 519.808c-5.12-5.184-5.12-5.184-10.368-5.184h-20.672s-5.12 0-5.12 5.12l-31.104 31.232c-15.488 10.432-15.488 31.168 0 46.784l62.08 62.4c10.368 10.368 36.224 10.368 46.528 0l25.856-31.232c5.184-5.12 5.184-10.368 10.368-20.736 0-5.248-5.12-15.616-10.368-20.8l-67.2-67.584zM589.568 405.44h-315.52c-36.16 0-62.016-31.168-62.016-62.4 0-36.352 31.04-62.336 62.08-62.336h315.52c36.16 0 62.016 31.168 62.016 62.336 0 36.416-25.856 62.4-62.08 62.4z m-124.16 249.472h-191.36c-36.16 0-62.016-31.168-62.016-62.336 0-36.416 31.04-62.4 62.08-62.4h186.176c36.224 0 62.08 31.232 62.08 62.4 5.12 31.168-25.856 62.336-56.96 62.336zM734.464 0h-579.2C72.32 0 5.12 67.584 0 150.72v722.56C0 956.48 67.2 1024 149.952 1024h175.872c15.488 0 31.04-15.616 31.04-31.168v-88.384c0-10.368 5.12-15.616 10.304-20.8l506.88-509.44c5.12-5.12 10.304-15.552 10.304-20.736V150.72C889.6 67.52 817.152 0 734.4 0zM501.632 925.248v62.336c0 15.616 15.552 31.232 31.04 31.232h62.08c10.368 0 15.488-5.184 20.672-10.432l284.48-280.64c10.304-10.432 10.304-31.232 0-46.784l-62.08-62.4c-10.368-10.368-31.04-10.368-46.528 0L512 904.448c-5.12 5.184-10.368 15.616-10.368 20.8z" p-id="35511" fill="#ffffff"></path></svg>